<svg xmlns="http://www.w3.org/2000/svg" viewBox="0 0 901 328">
<g transform="translate(0.000000,328.000000) scale(0.100000,-0.100000)">
<path fill="#ffffff" stroke="none" d="M490 1635 l0 -1217 373 4 c308 4 382 7 430 21 173 50 280 154 340
331 21 59 21 81 25 831 3 856 4 846 -63 981 -59 120 -137 187 -268 231 l-82
27 -377 4 -378 4 0 -1217z m706 839 c40 -29 64 -65 74 -110 12 -51 12 -1407 0
-1458 -12 -54 -38 -87 -91 -114 -40 -20 -55 -22 -174 -20 l-130 3 -3 863 -2
863 149 -3 c133 -3 153 -5 177 -24z M1975 2838 c-2 -7 -3 -553 -2 -1213 l2 -1200 193 -3 192 -2 0 453 0
454 158 6 c173 7 246 22 334 69 148 78 227 220 249 445 18 181 6 526 -21 628
-55 205 -183 324 -387 360 -107 19 -711 21 -718 3z m642 -349 c43 -16 80 -56
93 -102 8 -29 10 -129 8 -317 -3 -255 -4 -277 -23 -310 -36 -61 -73 -75 -212
-79 l-123 -3 0 411 0 411 114 0 c63 0 127 -5 143 -11z M3370 1635 l0 -1215 190 0 190 0 0 500 0 500 245 0 245 0 0 175 0
175 -245 0 -245 0 0 365 0 365 315 0 315 0 0 175 0 175 -505 0 -505 0 0 -1215z"/>
<path fill="#10ff36" stroke="none" d="M4630 1635 l0 -1215 505 0 505 0 0 175 0 175 -315 0 -315 0 0 1040 0
1040 -190 0 -190 0 0 -1215z M6147 2753 c-20 -128 -125 -783 -182 -1138 -25 -154 -72 -449 -105
-655 -33 -206 -64 -402 -70 -435 -19 -115 -35 -105 163 -105 l174 0 12 88 c7
48 19 125 26 172 7 47 16 106 20 132 l6 48 234 0 233 0 10 -62 c6 -35 21 -134
33 -220 l23 -158 193 0 c106 0 193 2 193 4 0 3 -18 116 -40 253 -22 136 -67
417 -100 623 -33 206 -87 544 -120 750 -33 206 -73 461 -90 565 -16 105 -32
200 -35 213 l-5 22 -279 0 -278 0 -16 -97z m368 -947 c47 -313 85 -579 85
-592 l0 -24 -181 0 -181 0 6 28 c3 15 12 75 21 135 8 59 24 167 36 240 11 72
24 161 29 197 5 36 19 126 30 200 11 74 25 167 31 205 16 116 32 201 35 190 2
-5 42 -266 89 -579z M7355 2838 c-3 -7 -4 -553 -3 -1213 l3 -1200 365 0 c319 0 373 2 430
18 202 55 317 172 367 373 13 55 17 113 16 289 0 246 -13 321 -74 435 -36 68
-64 97 -141 143 l-57 34 57 40 c106 75 156 181 174 371 14 138 -1 326 -32 416
-51 148 -145 235 -305 282 -51 14 -117 18 -427 21 -301 4 -369 2 -373 -9z
m669 -361 c69 -39 80 -76 84 -268 5 -226 -11 -274 -101 -321 -33 -17 -65 -22
-154 -26 l-113 -5 0 322 0 321 123 0 c108 0 127 -3 161 -23z m12 -986 c95 -43
114 -107 114 -370 -1 -251 -13 -290 -105 -332 -32 -15 -65 -19 -172 -19 l-133
0 0 370 0 370 128 0 c102 0 135 -4 168 -19z"/>
</g>
</svg>
